PathFileType	4	(X/Y/Z)	D:\TRACE\v60_Jaco2_6-2-23\JustArmDRS_Motion3_1-v60.trc
DataRate	CameraRate	NumFrames	NumMarkers	Units	OrigDataRate	OrigDataStartFrame	OrigNumFrames
100.00	100.00	      24	9	mm	100.00	3034	      8089
Frame#	Time	front left toe			Front right toe			aft left toe			aft right toe			Arm			FL body			FR body			AL Body			AR Body			
		X1	Y1	Z1	X2	Y2	Z2	X3	Y3	Z3	X4	Y4	Z4	X5	Y5	Z5	X6	Y6	Z6	X7	Y7	Z7	X8	Y8	Z8	X9	Y9	Z9	

3034	30.330	-170.55559	13.60222	-239.46303	227.22911	13.20868	-174.06604	-259.24387	26.19137	400.19052	148.42285	23.77096	414.92874	-18.69355	1149.53162	-646.37939	-30.88741	590.50568	-354.43344	126.21532	590.96759	-333.11911	-149.62158	571.98364	582.41681	1.10037	563.60223	601.90704	
3035	30.340	-170.56702	13.33483	-239.62505	227.32188	13.07867	-174.27071	-260.02393	26.91582	400.19836	148.43999	24.26398	414.76727	-18.30282	1148.84473	-647.23993	-30.51982	589.94135	-354.70190	126.11589	590.69855	-333.40912	-149.74409	572.45984	581.99414	0.88012	564.13403	601.57745	
3036	30.350	-170.63052	13.20496	-239.78581	227.49170	12.88800	-174.31639	-260.09454	27.37968	399.97891	148.66298	24.63291	414.61377	-17.72561	1148.26563	-648.28290	-30.03370	589.43884	-354.84167	126.60419	590.14154	-333.69189	-149.59079	573.13049	581.62781	0.88677	564.73376	601.31586	
3037	30.360	-170.62656	13.03104	-239.89362	227.46727	12.66313	-174.50423	-260.17914	27.95866	399.74326	148.87231	24.89455	414.49976	-17.33656	1147.54285	-648.98071	-29.63303	589.06879	-355.15454	127.26820	589.23615	-333.96179	-149.99292	573.71442	581.22888	1.22014	565.36566	601.06073	
3038	30.370	-170.45026	12.68831	-240.10231	227.51025	12.44203	-174.58472	-260.47375	28.76511	398.83591	149.13919	25.17556	414.42380	-17.03626	1146.90918	-649.96533	-29.35839	588.60858	-355.47003	128.15617	588.54779	-334.36801	-149.74525	574.13702	580.96350	1.42416	565.95380	600.74640	
3039	30.380	-170.34962	12.37786	-240.34204	227.57402	12.19078	-174.64265	-260.40036	29.01195	398.70563	148.97719	25.76743	414.31348	-16.76469	1146.34119	-650.78033	-29.40854	588.54413	-356.27463	128.11319	588.92810	-334.54288	-149.65334	574.77582	580.53198	1.36313	566.32172	600.47772	
3040	30.390	-170.32739	12.15762	-240.54239	227.73393	11.84221	-174.72813	-259.87531	29.12503	398.82013	148.85730	26.25384	414.26968	-16.49802	1145.73181	-651.62207	-29.18370	588.20239	-356.71808	128.80048	588.59174	-335.00644	-149.38260	575.21436	580.17316	1.23120	566.67749	599.86932	
3041	30.400	-170.29129	11.94891	-240.65367	227.76424	11.61153	-174.74347	-259.80392	29.46404	398.82214	148.79851	26.53816	414.15277	-16.18817	1145.12061	-652.56665	-28.96863	587.85382	-357.22128	129.12683	588.23151	-335.29785	-149.61794	575.77820	579.78284	1.22415	567.34326	599.58643	
3042	30.410	-170.32948	11.71383	-240.79338	227.89186	11.38666	-174.83850	-260.11087	29.65323	398.95868	148.78400	26.80769	413.90363	-15.56007	1144.38135	-653.33667	-28.72699	587.42761	-357.54745	128.70789	587.63165	-335.45242	-149.59689	576.11780	579.44885	1.31042	567.77478	599.36200	
3043	30.420	-170.39903	11.53804	-240.89873	227.87827	11.23231	-174.96538	-260.12009	29.76041	398.69379	148.67685	27.03359	413.76102	-15.24865	1143.66284	-654.25397	-28.56515	587.06091	-357.80008	129.19106	587.32123	-335.71570	-149.67859	576.68854	579.08228	1.37320	568.21759	598.94983	
3044	30.430	-170.03761	10.66266	-240.72746	227.79472	11.10788	-175.03300	-260.24646	30.18190	398.53000	148.82904	27.44798	413.60333	-14.74937	1142.99158	-655.13190	-28.37867	586.63477	-358.10614	128.88908	587.04602	-336.13742	-149.56142	577.26837	578.70343	1.43529	568.62585	598.71588	
3045	30.440	-170.04887	10.41824	-240.94836	227.91464	11.11513	-175.00804	-260.26642	30.65231	398.32040	149.01549	28.06962	413.49542	-14.28756	1142.24146	-655.92542	-28.43786	586.26569	-358.45956	128.97665	586.57788	-336.49500	-149.53047	577.70038	578.37872	1.21724	569.21350	598.31073	
3046	30.450	-170.10191	10.20451	-241.13246	227.92168	10.98796	-175.11789	-260.28195	31.05701	398.21317	148.84373	28.33708	413.35294	-14.08815	1141.56702	-656.90851	-28.36563	585.78229	-358.91315	129.34415	585.87091	-336.71063	-149.43407	578.08618	577.90765	1.46575	569.71259	597.94275	
3047	30.460	-170.10648	9.99852	-241.27541	227.94193	10.84176	-175.27370	-259.91458	31.29659	398.07217	148.58255	28.57324	413.16266	-13.66943	1140.76660	-657.77307	-28.08079	585.26025	-359.02249	129.34152	585.40143	-337.08890	-149.32327	578.66132	577.65088	1.59105	570.12762	597.70892	
3048	30.470	-170.19131	9.81501	-241.37808	227.85931	10.64640	-175.50243	-259.95370	31.66007	397.97275	148.55302	28.69050	413.09351	-13.54101	1139.90930	-658.45276	-27.75032	584.57355	-359.25696	130.07101	585.16162	-337.47549	-149.40845	579.07660	577.47168	1.59033	570.56641	597.48944	
3049	30.480	-170.59966	10.02989	-241.68291	227.70590	10.40976	-175.73180	-260.38519	31.96299	397.95032	148.48140	28.89058	412.98181	-13.46487	1139.22852	-659.53821	-27.64056	584.12018	-359.41681	130.02087	584.70081	-337.85596	-149.58165	579.63586	576.98474	1.42977	571.02130	597.16925	
3050	30.490	-170.52032	9.49088	-241.60193	227.54889	10.19910	-175.85017	-260.25345	32.30039	397.67612	148.64624	29.44175	412.80173	-13.29713	1138.49219	-660.24945	-27.51618	583.75903	-359.74429	130.64757	583.96497	-337.97601	-149.46432	580.04779	576.85242	1.45221	571.52325	596.83051	
3051	30.500	-170.60146	9.39995	-241.66432	227.38686	10.01212	-175.98560	-260.35193	32.57499	397.61130	148.49020	29.91486	412.80527	-12.98650	1137.68713	-661.10986	-27.63394	583.75690	-360.33203	129.74109	583.71533	-338.09131	-149.56360	580.52454	576.39246	1.50076	571.92480	596.56702	
3052	30.510	-170.78714	9.17439	-241.50388	227.20161	9.63267	-176.22086	-260.50632	32.99657	397.40460	148.36632	30.03696	412.73538	-12.89647	1137.10901	-661.88763	-27.49191	583.48132	-360.48230	129.67326	583.42761	-338.43869	-149.31976	580.95306	576.15930	1.44515	572.33984	596.26105	
3053	30.520	-170.97739	9.07951	-241.87398	226.87898	9.36427	-176.45683	-261.02942	33.28547	397.39459	148.12897	30.21833	412.53983	-12.70527	1136.48438	-662.54333	-27.58234	583.20972	-360.84241	129.86674	583.22687	-338.64456	-149.40109	581.43610	575.96313	1.47126	572.69324	596.08984	
3054	30.530	-171.27992	9.12417	-242.18690	226.62163	9.06670	-176.70514	-261.19458	33.50508	397.20944	147.90791	30.46295	412.34164	-12.42190	1136.04309	-663.28955	-27.58845	582.79004	-361.14258	129.66393	583.10461	-338.96594	-149.50003	581.66980	575.67462	1.30474	573.17639	595.77197	
3055	30.540	-171.33995	8.95747	-242.29480	226.43839	8.90560	-176.77432	-261.38828	33.69603	396.97562	147.89864	30.54158	412.32196	-12.26236	1135.79736	-663.84314	-27.55339	582.45752	-361.47144	129.71358	582.95465	-339.35358	-149.74681	582.12585	575.34045	1.28467	573.56641	595.48584	
3056	30.550	-171.45090	8.79683	-242.38017	226.53123	8.91162	-176.72403	-259.96930	33.19908	396.86734	148.03128	30.92944	412.40680	-12.01538	1135.57495	-664.32489	-27.56404	582.21820	-361.73383	130.22792	582.48822	-339.38229	-149.71944	582.61829	574.99292	1.18838	573.86029	595.26074	
3057	30.560	-171.61359	8.71139	-242.45464	226.41740	8.80824	-176.75761	-260.15170	33.43649	396.73502	147.83939	31.23185	412.38425	-11.74618	1135.33276	-664.85388	-27.49246	582.04004	-361.92358	130.22139	581.96124	-339.71954	-149.64520	582.88934	574.85272	1.14911	574.21198	595.01447	
